<svg width="200" height="200" viewBox="0 0 200 200" fill="none" xmlns="http://www.w3.org/2000/svg">
<path d="M149.2 36.3281C135.48 29.9481 119.044 28.0281 104.208 32.2961C90.78 36.1641 79.844 45.3241 68.932 53.6321C57.776 62.1201 44 67.8521 34.204 77.9601C20.76 91.8561 18 113.6 27.272 130.52C36.8 147.936 56 155.696 74.836 158C99.34 160.98 129.184 158.352 147.708 140.456C157.264 131.224 164.44 119.728 169.492 107.492C174.616 95.0681 179.16 82.8121 176.216 69.1401C173.004 54.2281 162.832 42.6761 149.2 36.3281Z" fill="#F6F9FF"/>
<path opacity="0.7" d="M149.2 36.3281C135.48 29.9481 119.044 28.0281 104.208 32.2961C90.78 36.1641 79.844 45.3241 68.932 53.6321C57.776 62.1201 44 67.8521 34.204 77.9601C20.76 91.8561 18 113.6 27.272 130.52C36.8 147.936 56 155.696 74.836 158C99.34 160.98 129.184 158.352 147.708 140.456C157.264 131.224 164.44 119.728 169.492 107.492C174.616 95.0681 179.16 82.8121 176.216 69.1401C173.004 54.2281 162.832 42.6761 149.2 36.3281Z" fill="white"/>
<path d="M98.828 168.544C145.626 168.544 183.564 161.968 183.564 153.856C183.564 145.744 145.626 139.168 98.828 139.168C52.0296 139.168 14.092 145.744 14.092 153.856C14.092 161.968 52.0296 168.544 98.828 168.544Z" fill="#F6F9FF"/>
<path opacity="0.5" d="M98.828 168.544C145.626 168.544 183.564 161.968 183.564 153.856C183.564 145.744 145.626 139.168 98.828 139.168C52.0296 139.168 14.092 145.744 14.092 153.856C14.092 161.968 52.0296 168.544 98.828 168.544Z" fill="white"/>
<path d="M13.096 136.188L13.072 136.868L13.268 139.176L53.908 150.616L89.888 107.288L89.568 103.56L81.276 103.364L13.096 136.188Z" fill="#F6F9FF"/>
<path d="M89.4439 103.448L50.2839 93.8401L13.0959 136.188L52.9399 147.392L89.4439 103.448Z" fill="white" stroke="#212529" stroke-linecap="round" stroke-linejoin="round"/>
<path d="M89.4439 103.448L89.7839 107.416L53.9079 150.616L52.9399 147.392" stroke="#212529" stroke-linecap="round" stroke-linejoin="round"/>
<path d="M53.9079 150.616L13.2679 139.176L13.0239 136.296" stroke="#212529" stroke-linecap="round" stroke-linejoin="round"/>
<path d="M53.4158 148.976L19.3398 139.404" stroke="#212529" stroke-linecap="round" stroke-linejoin="round"/>
<path d="M89.5759 106.236L70.4199 128.516" stroke="#212529" stroke-linecap="round" stroke-linejoin="round"/>
<path d="M68.252 130.596L53.364 148.376" stroke="#212529" stroke-linecap="round" stroke-linejoin="round"/>
<path d="M47.6358 103.076C48.2558 104.196 49.8838 104.48 51.2718 103.708C52.6598 102.936 53.2719 101.404 52.6519 100.284C52.0319 99.164 50.3998 98.884 49.0118 99.656C47.6238 100.428 47.0118 101.96 47.6358 103.076Z" stroke="#212529" stroke-miterlimit="10"/>
<path d="M79.1038 111.3L53.6838 104.284" stroke="#212529" stroke-linecap="round" stroke-linejoin="round"/>
<path d="M79.9399 110.304L54.5159 103.292" stroke="#212529" stroke-linecap="round" stroke-linejoin="round"/>
<path d="M40.3318 111.248C40.9558 112.368 42.5838 112.652 43.9678 111.88C45.3518 111.108 45.9678 109.576 45.3478 108.456C44.7278 107.336 43.0958 107.056 41.7118 107.828C40.3278 108.6 39.7078 110.132 40.3318 111.248Z" stroke="#212529" stroke-miterlimit="10"/>
<path d="M73.644 118.776L48.572 111.86" stroke="#212529" stroke-linecap="round" stroke-linejoin="round"/>
<path d="M74.508 117.792L49.408 110.868" stroke="#212529" stroke-linecap="round" stroke-linejoin="round"/>
<path d="M68.2518 124.604L42.4038 117.468" stroke="#212529" stroke-linecap="round" stroke-linejoin="round"/>
<path d="M69.1038 123.616L43.2358 116.476" stroke="#212529" stroke-linecap="round" stroke-linejoin="round"/>
<path d="M36.048 120.892C37.4337 120.12 38.0515 118.587 37.428 117.468C36.8044 116.348 35.1757 116.067 33.79 116.839C32.4043 117.611 31.7865 119.144 32.41 120.263C33.0335 121.382 34.6623 121.664 36.048 120.892Z" stroke="#212529" stroke-miterlimit="10"/>
<path d="M62.412 131.32L36.552 124.188" stroke="#212529" stroke-linecap="round" stroke-linejoin="round"/>
<path d="M63.2279 130.324L37.3879 123.196" stroke="#212529" stroke-linecap="round" stroke-linejoin="round"/>
<path d="M23.9559 129.916C24.5759 131.032 26.2079 131.316 27.5919 130.544C28.9759 129.772 29.5919 128.24 28.9719 127.12C28.3519 126 26.7199 125.72 25.3319 126.492C23.9439 127.264 23.3319 128.8 23.9559 129.916Z" stroke="#212529" stroke-miterlimit="10"/>
<path d="M55.2879 139.66L29.8679 132.644" stroke="#212529" stroke-linecap="round" stroke-linejoin="round"/>
<path d="M56.1239 138.664L30.7039 131.652" stroke="#212529" stroke-linecap="round" stroke-linejoin="round"/>
<path d="M49.28 100.132C49.28 100.132 49.028 102.564 49.536 102.872C50.24 102.172 53.744 99 53.744 99" stroke="#F6F9FF" stroke-width="3" stroke-linecap="round" stroke-linejoin="round"/>
<path d="M34.3998 118C34.3998 118 33.9078 120.4 34.3998 120.756C35.1718 120.128 38.9758 117.32 38.9758 117.32" stroke="#F6F9FF" stroke-width="3" stroke-linecap="round" stroke-linejoin="round"/>
<path d="M43.66 112.912L42.156 106.672" stroke="#212529" stroke-width="3" stroke-linecap="round" stroke-linejoin="round"/>
<path d="M27.6839 131.816L26.1799 125.576" stroke="#212529" stroke-width="3" stroke-linecap="round" stroke-linejoin="round"/>
<path d="M39.708 111.86L45.564 107.792" stroke="#212529" stroke-width="3" stroke-linecap="round" stroke-linejoin="round"/>
<path d="M23.252 130.552L29.108 126.484" stroke="#212529" stroke-width="3" stroke-linecap="round" stroke-linejoin="round"/>
<path d="M45.3479 91.2001L72.7399 124.72C72.0154 126.085 71.7387 127.643 71.9489 129.173C72.1592 130.704 72.8457 132.129 73.9112 133.248C74.9768 134.366 76.3673 135.121 77.8858 135.406C79.4043 135.69 80.9738 135.489 82.3719 134.832L76.6639 127.832L79.4199 125.6L85.1359 132.608C86.0661 131.369 86.5814 129.867 86.6083 128.318C86.6352 126.769 86.1723 125.25 85.2857 123.979C84.3991 122.708 83.134 121.75 81.6706 121.24C80.2072 120.73 78.6203 120.695 77.1359 121.14L49.7399 87.5801C49.7119 87.5441 50.4559 85.7161 50.5079 85.4801C51.0479 83.1081 50.8399 80.3881 49.4039 78.3641C47.0679 75.0761 43.0319 74.8521 39.5199 76.1921C38.6541 76.5085 37.8337 76.9376 37.0799 77.4681L44.1239 85.2521L42.9239 86.5121L36.2519 78.2121C33.4119 79.1281 31.8519 82.4681 33.5559 87.2241C33.9559 88.3241 37.9559 89.3321 38.8279 89.9801C39.7469 90.6694 40.8147 91.1338 41.9456 91.3359C43.0765 91.5381 44.239 91.4724 45.3399 91.1441L45.3479 91.2001Z" fill="#212529"/>
<path d="M42.3199 91.2002L69.7119 124.72C68.9883 126.084 68.7121 127.641 68.9223 129.171C69.1326 130.701 69.8187 132.126 70.8835 133.244C71.9483 134.363 73.3378 135.118 74.8555 135.403C76.3731 135.688 77.9419 135.488 79.3399 134.832L73.6319 127.832L76.3999 125.6L82.1199 132.608C83.0501 131.369 83.5654 129.867 83.5923 128.318C83.6192 126.769 83.1563 125.25 82.2697 123.979C81.3831 122.708 80.118 121.75 78.6546 121.24C77.1912 120.73 75.6043 120.695 74.1199 121.14L46.7239 87.5802C47.4484 86.2157 47.7251 84.6578 47.5148 83.1273C47.3046 81.5967 46.6181 80.1712 45.5526 79.0525C44.487 77.9339 43.0965 77.1789 41.578 76.8945C40.0595 76.6102 38.49 76.8109 37.0919 77.4682L42.6519 84.2682L39.8879 86.4962L34.3279 79.6962C33.3968 80.9326 32.8799 82.4315 32.8509 83.979C32.8219 85.5265 33.2824 87.0437 34.1665 88.3141C35.0507 89.5845 36.3135 90.5432 37.7747 91.0536C39.236 91.564 40.821 91.5999 42.3039 91.1562L42.3199 91.2002Z" fill="#F6F9FF" stroke="#212529" stroke-width="1.25654" stroke-linecap="round" stroke-linejoin="round"/>
<path d="M45.06 89.3441C45.0608 89.5088 45.0127 89.6701 44.9217 89.8074C44.8308 89.9448 44.7011 90.052 44.5492 90.1156C44.3972 90.1792 44.2298 90.1963 44.0681 90.1646C43.9065 90.133 43.7579 90.054 43.6411 89.9378C43.5243 89.8216 43.4447 89.6734 43.4123 89.5119C43.3799 89.3504 43.3961 89.1829 43.4589 89.0307C43.5218 88.8784 43.6284 88.7482 43.7653 88.6566C43.9022 88.565 44.0633 88.5161 44.228 88.5161C44.448 88.5161 44.659 88.6032 44.8149 88.7584C44.9708 88.9136 45.0589 89.1241 45.06 89.3441Z" fill="#212529"/>
<path d="M60.1399 111.084L69.5959 122.86" stroke="#212529" stroke-width="1.25654" stroke-linecap="round" stroke-linejoin="round"/>
<path d="M55.8999 105.804L58.3999 108.916" stroke="#212529" stroke-width="1.25654" stroke-linecap="round" stroke-linejoin="round"/>
<path d="M161.096 168.06L157.652 168.308L154.104 168.56L85.6481 173.432L75.3561 170.208L70.9561 168.832L75.2001 166.8L84.8521 162.12L152.672 157.296L156.672 157.008L160.324 156.752L160.492 157.152C161.987 160.6 162.201 164.468 161.096 168.06Z" fill="#F6F9FF"/>
<path d="M159.72 164.477L84.7627 169.534L84.8567 170.927L159.814 165.869L159.72 164.477Z" fill="#212529"/>
<path d="M158.897 159.4L83.939 164.457L84.0329 165.85L158.991 160.792L158.897 159.4Z" fill="#212529"/>
<path d="M161.096 168.06L157.652 168.308L153.756 168.584C154.072 164.184 153.14 159.008 152.66 157.276L156.66 156.988L160.312 156.732L160.48 157.132C161.984 160.584 162.202 164.461 161.096 168.06Z" fill="white"/>
<path d="M85.6481 173.432L75.3561 170.208L70.9561 168.832L75.2001 166.8L84.8521 162.12C88.9321 168.52 85.6481 173.432 85.6481 173.432Z" fill="white"/>
<path d="M75.3561 170.208L70.9561 168.832L75.2001 166.8C75.6198 167.889 75.6746 169.085 75.3561 170.208Z" fill="#212529"/>
<path d="M85.6481 173.432C85.6481 173.432 89.1641 167.832 84.8481 162.1" stroke="#212529" stroke-linecap="round" stroke-linejoin="round"/>
<path d="M161.096 168.06L157.652 168.308C157.724 167.824 157.78 167.34 157.82 166.86C158.009 163.526 157.61 160.184 156.64 156.988L160.292 156.732L160.46 157.132C161.973 160.585 162.198 164.466 161.096 168.072V168.06Z" fill="#212529"/>
<path d="M161.096 168.06L85.6481 173.432L75.3561 170.208L70.9561 168.832L75.2001 166.8L84.8521 162.12L160.304 156.752L160.472 157.152C161.983 160.607 162.209 164.489 161.108 168.096L161.096 168.06Z" stroke="#212529" stroke-linecap="round" stroke-linejoin="round"/>
<path opacity="0.1" d="M161.096 168.06L157.652 168.308C157.724 167.824 157.78 167.34 157.82 166.86L161.744 162.312C161.886 164.252 161.667 166.201 161.096 168.06Z" fill="white"/>
<path d="M152.66 157.276C152.66 157.276 154.228 164.476 153.756 168.584" stroke="#212529" stroke-miterlimit="10"/>
<path d="M145.124 65.496C145.149 65.5049 145.175 65.5059 145.201 65.4987C145.226 65.4915 145.248 65.4765 145.264 65.456L146.784 63.428C146.8 63.4075 146.809 63.3821 146.809 63.356C146.809 63.3298 146.8 63.3045 146.784 63.284L145.388 61.552C145.722 60.8441 145.974 60.1007 146.14 59.336L148.34 58.824C148.366 58.818 148.389 58.804 148.407 58.7838C148.424 58.7636 148.434 58.7385 148.436 58.712L148.508 56.18C148.509 56.1535 148.501 56.1276 148.485 56.1064C148.469 56.0853 148.446 56.0704 148.42 56.064L146.244 55.444C146.018 54.0965 145.519 52.8091 144.78 51.66L146 49.72C146.017 49.7004 146.026 49.6756 146.026 49.65C146.026 49.6243 146.017 49.5995 146 49.58L144.256 47.736C144.238 47.7167 144.214 47.7039 144.188 47.6996C144.162 47.6952 144.135 47.6996 144.112 47.712L142.112 48.84C141.488 48.3992 140.818 48.029 140.112 47.736L140.008 45.42C140.007 45.3934 139.996 45.368 139.978 45.3488C139.96 45.3296 139.935 45.3179 139.908 45.316L137.428 44.804C137.403 44.7982 137.376 44.8009 137.352 44.8118C137.328 44.8226 137.309 44.8409 137.296 44.864L136.284 46.96C135.527 46.9518 134.772 47.0283 134.032 47.188L132.62 45.34C132.604 45.3199 132.581 45.3053 132.556 45.2981C132.531 45.291 132.505 45.2916 132.48 45.3L130.152 46.308C130.129 46.3186 130.109 46.3363 130.096 46.3585C130.083 46.3807 130.078 46.4064 130.08 46.432L130.452 48.716C130 49.0224 129.573 49.3649 129.176 49.74C129.028 49.876 128.884 50.024 128.72 50.2L126.52 49.508C126.495 49.5001 126.469 49.5006 126.444 49.5093C126.42 49.5179 126.399 49.5343 126.384 49.556L125.048 51.712C125.032 51.7325 125.023 51.7578 125.023 51.784C125.023 51.8101 125.032 51.8355 125.048 51.856L126.648 53.492C126.374 54.212 126.182 54.9608 126.076 55.724L123.912 56.4C123.888 56.4094 123.867 56.4259 123.852 56.4472C123.837 56.4686 123.829 56.4939 123.828 56.52L123.984 59.056C123.986 59.0815 123.997 59.1055 124.014 59.1243C124.032 59.1431 124.055 59.1557 124.08 59.16L126.276 59.592C126.464 60.355 126.74 61.0933 127.1 61.792L125.748 63.6C125.732 63.6211 125.723 63.6471 125.723 63.674C125.723 63.7008 125.732 63.7268 125.748 63.748L127.324 65.748C127.342 65.7589 127.363 65.7647 127.384 65.7647C127.405 65.7647 127.426 65.7589 127.444 65.748L129.444 64.856C130.04 65.377 130.696 65.8267 131.396 66.196L131.312 68.392C131.312 68.4176 131.321 68.4425 131.336 68.4633C131.351 68.4841 131.372 68.4997 131.396 68.508L133.828 69.236C133.853 69.2439 133.879 69.243 133.903 69.2335C133.927 69.2241 133.948 69.2065 133.96 69.184L135.096 67.312C135.887 67.3913 136.684 67.3806 137.472 67.28L138.672 69.128C138.687 69.1489 138.708 69.1645 138.733 69.1724C138.757 69.1804 138.784 69.1802 138.808 69.172L141.208 68.372C141.232 68.3632 141.253 68.3467 141.267 68.325C141.28 68.3032 141.287 68.2776 141.284 68.252L141.144 66.06C141.832 65.6715 142.472 65.2044 143.052 64.668L145.124 65.496ZM131.924 52.652C132.818 51.8111 133.942 51.254 135.152 51.051C136.363 50.848 137.606 51.0082 138.726 51.5114C139.846 52.0146 140.791 52.8382 141.443 53.8783C142.095 54.9184 142.424 56.1283 142.389 57.3553C142.354 58.5823 141.956 59.7713 141.246 60.7724C140.535 61.7735 139.544 62.5416 138.398 62.9799C137.251 63.4182 136 63.507 134.803 63.2351C133.606 62.9631 132.517 62.3427 131.672 61.452C131.109 60.8592 130.668 60.1611 130.375 59.3977C130.082 58.6343 129.942 57.8205 129.964 57.003C129.986 56.1855 130.169 55.3804 130.502 54.6338C130.836 53.8871 131.314 53.2137 131.908 52.652H131.924Z" fill="#212529"/>
<path d="M122.328 67.7042C122.347 67.6828 122.358 67.655 122.358 67.6262C122.358 67.5973 122.347 67.5695 122.328 67.5482L121.032 66.3282C121.303 65.7527 121.51 65.1491 121.648 64.5282L123.436 64.3762C123.465 64.3752 123.492 64.3637 123.513 64.3437C123.534 64.3238 123.546 64.2968 123.548 64.2682L123.628 61.6322C123.627 61.6034 123.616 61.5761 123.596 61.5554C123.576 61.5347 123.549 61.5221 123.52 61.5202L121.724 61.2602C121.535 60.1547 121.127 59.0981 120.524 58.1522L121.704 56.7362C121.723 56.7155 121.734 56.6883 121.734 56.6602C121.734 56.632 121.723 56.6049 121.704 56.5842L119.892 54.6682C119.871 54.6479 119.843 54.6365 119.814 54.6365C119.785 54.6365 119.757 54.6479 119.736 54.6682L118.252 55.7722C117.752 55.4172 117.216 55.1168 116.652 54.8762L116.816 53.0282C116.82 52.9987 116.812 52.9688 116.795 52.9445C116.778 52.9201 116.753 52.9029 116.724 52.8962L114.136 52.3642C114.108 52.3578 114.08 52.3622 114.055 52.3763C114.031 52.3904 114.012 52.4132 114.004 52.4402L113.42 54.2122C112.805 54.2072 112.19 54.2689 111.588 54.3962L110.66 52.7962C110.645 52.7723 110.622 52.7542 110.595 52.7448C110.568 52.7354 110.539 52.7352 110.512 52.7442L108.092 53.7922C108.065 53.8029 108.044 53.8232 108.031 53.8491C108.018 53.8749 108.016 53.9045 108.024 53.9322L108.564 55.7082C108.195 55.9624 107.845 56.2432 107.516 56.5482C107.4 56.6602 107.284 56.7722 107.156 56.9162L105.48 56.1162C105.454 56.104 105.425 56.1018 105.398 56.11C105.37 56.1181 105.347 56.1359 105.332 56.1602L103.912 58.4002C103.895 58.4241 103.887 58.4539 103.892 58.4831C103.896 58.5123 103.912 58.5386 103.936 58.5562L105.372 59.6842C105.149 60.2706 104.991 60.8795 104.9 61.5002L103.112 61.8122C103.083 61.8171 103.058 61.8325 103.04 61.8555C103.022 61.8784 103.014 61.9072 103.016 61.9362L103.168 64.5722C103.17 64.6006 103.182 64.6275 103.201 64.648C103.221 64.6686 103.248 64.6814 103.276 64.6842L105.064 64.7802C105.216 65.3995 105.439 65.9995 105.728 66.5682L104.468 67.8242C104.448 67.8451 104.436 67.873 104.436 67.9022C104.436 67.9313 104.448 67.9593 104.468 67.9802L106.108 70.0362C106.129 70.0564 106.157 70.0678 106.186 70.0678C106.215 70.0678 106.243 70.0564 106.264 70.0362L107.764 69.1082C108.256 69.5285 108.792 69.8934 109.364 70.1962L109.056 71.9282C109.051 71.9561 109.056 71.9851 109.071 72.0094C109.086 72.0337 109.109 72.0518 109.136 72.0602L111.668 72.8162C111.695 72.8234 111.723 72.8209 111.748 72.8092C111.773 72.7974 111.793 72.7772 111.804 72.7522L112.496 71.1522C113.138 71.2155 113.785 71.2048 114.424 71.1202L115.164 72.7202C115.176 72.7454 115.197 72.7653 115.223 72.7764C115.249 72.7874 115.277 72.7887 115.304 72.7802L117.804 71.9562C117.831 71.947 117.854 71.928 117.868 71.9028C117.882 71.8777 117.887 71.8482 117.88 71.8202L117.52 70.1082C118.079 69.7868 118.603 69.406 119.08 68.9722L120.608 69.8562C120.633 69.8697 120.662 69.8739 120.69 69.8681C120.718 69.8622 120.743 69.8466 120.76 69.8242L122.328 67.7042ZM109.576 66.2282C108.664 65.2298 108.18 63.9127 108.231 62.5611C108.281 61.2096 108.861 59.932 109.845 59.0041C110.829 58.0763 112.138 57.5726 113.49 57.6018C114.842 57.631 116.129 58.1907 117.072 59.1602L117.168 59.2682C118.09 60.276 118.574 61.6087 118.513 62.9733C118.452 64.3378 117.852 65.6223 116.844 66.5442C115.836 67.4661 114.503 67.9498 113.139 67.8891C111.774 67.8283 110.49 67.228 109.568 66.2202L109.576 66.2282Z" stroke="#212529" stroke-miterlimit="10"/>
<path d="M118.768 45.3361C118.756 45.3486 118.75 45.365 118.75 45.3821C118.75 45.3991 118.756 45.4155 118.768 45.4281L119.732 46.6281C119.744 46.6393 119.76 46.6456 119.776 46.6456C119.792 46.6456 119.808 46.6393 119.82 46.6281L120.704 46.0801C120.99 46.3306 121.304 46.5467 121.64 46.7241L121.46 47.7401C121.458 47.7479 121.457 47.7562 121.458 47.7644C121.459 47.7726 121.461 47.7805 121.465 47.7876C121.47 47.7948 121.475 47.801 121.482 47.8059C121.488 47.8107 121.496 47.8142 121.504 47.8161L122.992 48.2641C123.008 48.2682 123.025 48.2664 123.039 48.2591C123.054 48.2517 123.066 48.2393 123.072 48.2241L123.472 47.2761C123.849 47.32 124.231 47.32 124.608 47.2761L125.04 48.2121C125.048 48.2261 125.061 48.237 125.076 48.2428C125.092 48.2486 125.108 48.249 125.124 48.2441L126.592 47.7641C126.607 47.7579 126.62 47.7465 126.628 47.7319C126.636 47.7173 126.639 47.7004 126.636 47.6841L126.428 46.6721C126.756 46.4837 127.063 46.2612 127.344 46.0081L128.24 46.5281C128.252 46.5385 128.268 46.5442 128.284 46.5442C128.3 46.5442 128.316 46.5385 128.328 46.5281L129.256 45.2841C129.262 45.2784 129.267 45.2716 129.27 45.2641C129.273 45.2565 129.275 45.2483 129.275 45.2401C129.275 45.2318 129.273 45.2236 129.27 45.2161C129.267 45.2085 129.262 45.2017 129.256 45.1961L128.496 44.4761C128.656 44.1375 128.777 43.7819 128.856 43.4161L129.908 43.3281C129.925 43.3272 129.941 43.3203 129.954 43.3086C129.966 43.2968 129.974 43.2811 129.976 43.2641L130.02 41.7121C130.019 41.696 130.013 41.6808 130.002 41.6691C129.991 41.6574 129.976 41.6499 129.96 41.6481L128.904 41.4921C128.789 40.8432 128.547 40.2234 128.192 39.6681L128.888 38.8361C128.899 38.8231 128.905 38.8069 128.905 38.7901C128.905 38.7733 128.899 38.757 128.888 38.7441L127.824 37.6001C127.812 37.5888 127.796 37.5825 127.78 37.5825C127.764 37.5825 127.748 37.5888 127.736 37.6001L126.86 38.2521C126.564 38.0421 126.246 37.8651 125.912 37.7241L126.012 36.6361C126.013 36.6188 126.008 36.6016 125.998 36.5876C125.988 36.5736 125.973 36.5639 125.956 36.5601L124.436 36.2481C124.428 36.2456 124.419 36.2448 124.411 36.2457C124.402 36.2466 124.394 36.2492 124.387 36.2533C124.379 36.2574 124.373 36.2629 124.367 36.2696C124.362 36.2762 124.358 36.2839 124.356 36.2921L124.012 37.3321C123.651 37.3299 123.29 37.3661 122.936 37.4401L122.4 36.4881C122.397 36.4805 122.392 36.4736 122.385 36.468C122.379 36.4624 122.372 36.4582 122.364 36.4556C122.356 36.4529 122.348 36.452 122.34 36.4527C122.331 36.4535 122.323 36.456 122.316 36.4601L120.892 37.0721C120.876 37.0791 120.864 37.0913 120.857 37.1067C120.849 37.1221 120.848 37.1396 120.852 37.1561L121.168 38.2001C120.951 38.3472 120.746 38.5118 120.556 38.6921C120.488 38.7561 120.42 38.8241 120.34 38.9081L119.356 38.4481C119.349 38.444 119.341 38.4415 119.332 38.4407C119.324 38.44 119.316 38.4409 119.308 38.4436C119.3 38.4462 119.293 38.4504 119.286 38.456C119.28 38.4616 119.275 38.4685 119.272 38.4761L118.472 39.7961C118.462 39.8093 118.456 39.8254 118.456 39.8421C118.456 39.8587 118.462 39.8748 118.472 39.8881L119.316 40.5521C119.184 40.8965 119.091 41.2548 119.04 41.6201L117.988 41.8001C117.971 41.8029 117.956 41.8118 117.945 41.825C117.934 41.8382 117.928 41.8549 117.928 41.8721L118.02 43.4201C118.02 43.4374 118.027 43.4541 118.038 43.4668C118.05 43.4794 118.067 43.487 118.084 43.4881L119.132 43.5441C119.226 43.9086 119.36 44.2615 119.532 44.5961L118.768 45.3361ZM126.052 44.5361C125.616 44.9475 125.067 45.2203 124.475 45.3199C123.884 45.4195 123.276 45.3414 122.729 45.0956C122.182 44.8497 121.72 44.4471 121.402 43.9387C121.084 43.4303 120.923 42.839 120.941 42.2394C120.959 41.6399 121.155 41.0592 121.503 40.5707C121.851 40.0822 122.336 39.7079 122.897 39.4951C123.457 39.2824 124.069 39.2408 124.653 39.3755C125.238 39.5102 125.769 39.8153 126.18 40.2521C126.729 40.8364 127.024 41.6149 127 42.4165C126.976 43.2182 126.635 43.9776 126.052 44.5281V44.5361Z" stroke="#212529" stroke-miterlimit="10"/>
<path d="M173.98 149.768L179.048 140.988L123.8 142.5L112.756 80.9839L108.7 90.5319L117.604 150.5L173.98 149.768Z" fill="#F6F9FF"/>
<path d="M179.048 140.988L123.8 142.5L112.756 79.8519L164.292 78.2119L165.384 90.3199L179.048 140.988Z" fill="white" stroke="#212529" stroke-linecap="round" stroke-linejoin="round"/>
<path d="M179.048 140.988L173.98 149.768L117.604 150.5L108.7 90.532L112.756 79.8521" stroke="#212529" stroke-linecap="round" stroke-linejoin="round"/>
<path d="M112.756 79.8519C112.756 79.8519 117.156 112.692 134.464 136.208L184.8 134.256C184.8 134.256 165.388 100.82 164.296 78.2119L112.756 79.8519Z" fill="white" stroke="#212529" stroke-linecap="round" stroke-linejoin="round"/>
<path d="M158.88 83.9999C158.879 84.307 158.969 84.6075 159.139 84.8632C159.31 85.119 159.552 85.3185 159.835 85.4366C160.119 85.5547 160.431 85.586 160.732 85.5266C161.034 85.4671 161.31 85.3196 161.528 85.1027C161.745 84.8859 161.894 84.6093 161.954 84.3082C162.014 84.007 161.983 83.6947 161.866 83.4109C161.749 83.1271 161.55 82.8845 161.295 82.7137C161.039 82.543 160.739 82.4519 160.432 82.4519C160.021 82.4519 159.627 82.6149 159.336 82.9051C159.045 83.1953 158.881 83.589 158.88 83.9999Z" fill="#212529"/>
<path d="M152.208 84.2838C152.207 84.591 152.298 84.8914 152.468 85.1472C152.638 85.4029 152.88 85.6025 153.163 85.7206C153.447 85.8386 153.759 85.8699 154.06 85.8105C154.362 85.7511 154.639 85.6036 154.856 85.3867C155.073 85.1698 155.222 84.8933 155.282 84.5921C155.342 84.2909 155.312 83.9787 155.194 83.6948C155.077 83.411 154.878 83.1684 154.623 82.9977C154.367 82.827 154.067 82.7358 153.76 82.7358C153.556 82.7353 153.355 82.775 153.166 82.8525C152.978 82.9301 152.807 83.044 152.663 83.1878C152.519 83.3316 152.404 83.5025 152.326 83.6905C152.248 83.8786 152.208 84.0802 152.208 84.2838Z" fill="#212529"/>
<path d="M140.454 86.1951C141.211 85.7917 141.497 84.8515 141.093 84.0953C140.69 83.339 139.75 83.053 138.993 83.4565C138.237 83.8599 137.951 84.8001 138.355 85.5563C138.758 86.3126 139.698 86.5986 140.454 86.1951Z" fill="#212529"/>
<path d="M131.316 85.028C131.315 85.3351 131.405 85.6356 131.576 85.8913C131.746 86.1471 131.988 86.3466 132.271 86.4647C132.555 86.5828 132.867 86.6141 133.168 86.5547C133.47 86.4952 133.746 86.3477 133.964 86.1308C134.181 85.9139 134.33 85.6374 134.39 85.3362C134.45 85.0351 134.42 84.7228 134.302 84.439C134.185 84.1552 133.986 83.9125 133.731 83.7418C133.475 83.5711 133.175 83.48 132.868 83.48C132.664 83.4795 132.463 83.5191 132.274 83.5967C132.086 83.6742 131.915 83.7882 131.771 83.932C131.627 84.0758 131.512 84.2466 131.434 84.4347C131.356 84.6227 131.316 84.8244 131.316 85.028Z" fill="#212529"/>
<path d="M121.296 85.8359C121.281 86.0679 121.178 86.2853 121.008 86.4442C120.838 86.603 120.614 86.6914 120.382 86.6914C120.149 86.6914 119.926 86.603 119.756 86.4442C119.586 86.2853 119.483 86.0679 119.468 85.8359C119.444 84.6394 119.327 83.4466 119.12 82.2679C118.78 80.3439 118.112 78.0959 116.788 76.7879C116.462 76.4492 116.069 76.181 115.635 76C115.201 75.8191 114.734 75.7292 114.264 75.7359H114.228C113.852 75.7156 113.477 75.7852 113.133 75.9389C112.789 76.0927 112.487 76.3261 112.252 76.6199C111.092 78.0959 111.208 81.1439 111.496 83.1759L110.296 86.3759C110.176 85.8359 108.488 78.4719 110.832 75.4879C111.235 74.9755 111.753 74.5642 112.343 74.2865C112.933 74.0088 113.58 73.8723 114.232 73.8879C114.95 73.8789 115.663 74.0161 116.326 74.2911C116.99 74.5662 117.591 74.9734 118.092 75.4879C121.26 78.6519 121.296 85.5439 121.296 85.8359Z" fill="#212529"/>
<path d="M127.544 85.36C127.544 85.6018 127.448 85.8338 127.277 86.0048C127.106 86.1759 126.874 86.2719 126.632 86.2719C126.39 86.2719 126.158 86.1759 125.987 86.0048C125.816 85.8338 125.72 85.6018 125.72 85.36C125.693 84.1634 125.575 82.9707 125.368 81.792C125.032 79.864 124.364 77.62 123.04 76.308C122.711 75.9631 122.313 75.6912 121.872 75.51C121.431 75.3288 120.956 75.2422 120.48 75.256C120.104 75.2387 119.729 75.3101 119.386 75.4643C119.043 75.6186 118.741 75.8514 118.504 76.144C117.844 76.984 117.6 78.328 117.56 79.7L115.736 79.756C115.776 78.048 116.096 76.2479 117.068 75.0159C117.47 74.5027 117.986 74.0907 118.576 73.8128C119.166 73.535 119.812 73.3991 120.464 73.4159C121.183 73.4035 121.897 73.5392 122.562 73.8144C123.227 74.0897 123.828 74.4986 124.328 75.0159C127.508 78.1719 127.544 85.068 127.544 85.36Z" fill="#212529"/>
<path d="M133.936 85.36C133.92 85.592 133.818 85.8094 133.648 85.9683C133.478 86.1271 133.254 86.2155 133.022 86.2155C132.789 86.2155 132.566 86.1271 132.396 85.9683C132.226 85.8094 132.123 85.592 132.108 85.36C132.084 84.1635 131.967 82.9706 131.76 81.792C131.424 79.864 130.752 77.62 129.428 76.308C129.098 75.9637 128.7 75.6923 128.259 75.5111C127.818 75.3299 127.344 75.243 126.868 75.256C126.492 75.2371 126.118 75.3078 125.775 75.4622C125.432 75.6166 125.131 75.8503 124.896 76.144C124.268 76.944 124.012 78.192 123.956 79.492L122.132 79.552C122.192 77.908 122.532 76.204 123.46 75.016C123.862 74.5025 124.378 74.0903 124.968 73.8125C125.557 73.5346 126.204 73.3988 126.856 73.416C127.575 73.4029 128.288 73.5383 128.953 73.8136C129.617 74.0889 130.217 74.4982 130.716 75.016C133.9 78.172 133.936 85.068 133.936 85.36Z" fill="#212529"/>
<path d="M140.372 84.5479C140.372 84.7898 140.276 85.0217 140.105 85.1928C139.934 85.3638 139.702 85.4599 139.46 85.4599C139.218 85.4599 138.986 85.3638 138.815 85.1928C138.644 85.0217 138.548 84.7898 138.548 84.5479C138.521 83.3514 138.404 82.1586 138.196 80.9799C137.856 79.0559 137.184 76.8079 135.868 75.4999C135.541 75.161 135.148 74.8928 134.713 74.7119C134.278 74.5309 133.811 74.4411 133.34 74.4479H133.308C132.932 74.4272 132.557 74.4967 132.213 74.6504C131.869 74.8042 131.567 75.0378 131.332 75.3319C130.608 76.2519 130.38 77.7839 130.38 79.2959L128.56 79.3479C128.56 77.5279 128.848 75.5399 129.896 74.2039C130.299 73.6921 130.816 73.2811 131.405 73.0034C131.995 72.7257 132.641 72.5889 133.292 72.6039H133.34C134.051 72.5981 134.756 72.7369 135.412 73.0119C136.068 73.287 136.662 73.6925 137.156 74.2039C140.336 77.3599 140.372 84.2559 140.372 84.5479Z" fill="#212529"/>
<path d="M147.2 84.172C147.208 84.2971 147.191 84.4226 147.149 84.5407C147.106 84.6587 147.04 84.7669 146.955 84.8584C146.869 84.95 146.766 85.023 146.651 85.0728C146.535 85.1227 146.411 85.1485 146.286 85.1485C146.161 85.1485 146.037 85.1227 145.922 85.0728C145.807 85.023 145.703 84.95 145.617 84.8584C145.532 84.7669 145.466 84.6587 145.423 84.5407C145.381 84.4226 145.364 84.2971 145.372 84.172C145.348 82.9755 145.231 81.7826 145.024 80.604C144.684 78.68 144.016 76.432 142.692 75.124C142.363 74.779 141.965 74.5068 141.524 74.3249C141.083 74.1431 140.609 74.0555 140.132 74.068C139.756 74.0507 139.381 74.1221 139.038 74.2763C138.695 74.4306 138.393 74.6634 138.156 74.956C137.412 75.904 137.192 77.488 137.204 79.036H135.384C135.384 77.2 135.66 75.176 136.72 73.836C137.123 73.3241 137.64 72.9131 138.229 72.6354C138.819 72.3577 139.465 72.221 140.116 72.236C140.835 72.224 141.549 72.3599 142.214 72.6351C142.879 72.9103 143.48 73.3191 143.98 73.836C147.148 76.988 147.2 83.884 147.2 84.172Z" fill="#212529"/>
<path d="M154.684 84.5479C154.684 84.7898 154.588 85.0217 154.417 85.1928C154.246 85.3638 154.014 85.4599 153.772 85.4599C153.53 85.4599 153.298 85.3638 153.127 85.1928C152.956 85.0217 152.86 84.7898 152.86 84.5479C152.835 83.3512 152.718 82.1583 152.508 80.9799C152.168 79.0559 151.5 76.8079 150.18 75.4999C149.853 75.161 149.46 74.8928 149.025 74.7119C148.59 74.5309 148.123 74.4411 147.652 74.4479H147.62C147.244 74.4272 146.868 74.4967 146.525 74.6504C146.181 74.8042 145.879 75.0378 145.644 75.3319C144.992 76.1639 144.74 77.4959 144.7 78.8639L142.88 78.8959C142.92 77.2079 143.248 75.4279 144.208 74.2039C144.611 73.6921 145.128 73.2811 145.717 73.0034C146.307 72.7257 146.953 72.5889 147.604 72.6039H147.652C148.363 72.5981 149.068 72.7369 149.724 73.0119C150.38 73.287 150.973 73.6925 151.468 74.2039C154.648 77.3599 154.684 84.2559 154.684 84.5479Z" fill="#212529"/>
<path d="M161.464 84.172C161.449 84.4039 161.346 84.6214 161.176 84.7802C161.006 84.9391 160.782 85.0275 160.55 85.0275C160.317 85.0275 160.094 84.9391 159.924 84.7802C159.754 84.6214 159.651 84.4039 159.636 84.172C159.612 82.9755 159.495 81.7826 159.288 80.604C158.948 78.68 158.28 76.432 156.956 75.124C156.628 74.7787 156.23 74.5063 155.79 74.3243C155.35 74.1424 154.876 74.0551 154.4 74.068C154.023 74.0501 153.648 74.1211 153.304 74.2754C152.96 74.4297 152.657 74.6628 152.42 74.956C151.744 75.816 151.5 77.204 151.472 78.608L149.652 78.672C149.68 76.936 149.996 75.072 150.984 73.828C151.388 73.3158 151.905 72.9046 152.495 72.6269C153.085 72.3493 153.732 72.2127 154.384 72.228C155.102 72.2173 155.815 72.3537 156.479 72.6289C157.143 72.9041 157.744 73.3121 158.244 73.828C161.428 76.988 161.464 83.884 161.464 84.172Z" fill="#212529"/>
<path d="M118.536 85.548C118.535 85.8551 118.625 86.1556 118.796 86.4113C118.966 86.6671 119.208 86.8666 119.491 86.9847C119.775 87.1028 120.087 87.1341 120.388 87.0747C120.69 87.0152 120.966 86.8677 121.184 86.6508C121.401 86.434 121.55 86.1574 121.61 85.8563C121.67 85.5551 121.639 85.2428 121.522 84.959C121.405 84.6752 121.206 84.4326 120.951 84.2618C120.695 84.0911 120.395 84 120.088 84C119.884 83.9995 119.683 84.0391 119.494 84.1167C119.306 84.1943 119.135 84.3082 118.991 84.452C118.847 84.5958 118.732 84.7666 118.654 84.9547C118.576 85.1428 118.536 85.3444 118.536 85.548Z" fill="#212529"/>
<path d="M145.028 84.5478C145.028 84.8548 145.119 85.1549 145.29 85.4101C145.46 85.6653 145.703 85.8642 145.986 85.9817C146.27 86.0992 146.582 86.1299 146.883 86.07C147.184 86.0101 147.46 85.8623 147.678 85.6453C147.895 85.4282 148.042 85.1517 148.102 84.8506C148.162 84.5496 148.131 84.2375 148.014 83.9539C147.896 83.6703 147.698 83.4279 147.442 83.2574C147.187 83.0869 146.887 82.9958 146.58 82.9958C146.169 82.9969 145.775 83.1608 145.484 83.4516C145.193 83.7424 145.029 84.1366 145.028 84.5478Z" fill="#212529"/>
<path d="M124.924 85.236C124.923 85.5431 125.014 85.8436 125.184 86.0993C125.354 86.3551 125.596 86.5546 125.879 86.6727C126.163 86.7908 126.475 86.8221 126.776 86.7627C127.078 86.7032 127.355 86.5557 127.572 86.3388C127.79 86.1219 127.938 85.8454 127.998 85.5442C128.058 85.2431 128.028 84.9308 127.91 84.647C127.793 84.3632 127.594 84.1205 127.339 83.9498C127.083 83.7791 126.783 83.688 126.476 83.688C126.065 83.688 125.671 83.851 125.38 84.1411C125.089 84.4313 124.925 84.8251 124.924 85.236Z" fill="#212529"/>
<path d="M109.748 88.0679L112.312 103.624" stroke="#212529" stroke-linecap="round" stroke-linejoin="round"/>
<path d="M112.756 98.124L114.96 110.964" stroke="#212529" stroke-linecap="round" stroke-linejoin="round"/>
<path d="M159.976 146.276L120.54 146.776" stroke="#212529" stroke-linecap="round" stroke-linejoin="round"/>
<path d="M123.8 142.5L117.604 150.5" stroke="#212529" stroke-linecap="round" stroke-linejoin="round"/>
<path d="M118.26 123.048L122.3 144.432L138.344 143.928" stroke="#212529" stroke-linecap="round" stroke-linejoin="round"/>
<path d="M118.26 133.74L114.22 112.356" stroke="#212529" stroke-linecap="round" stroke-linejoin="round"/>
<path d="M177.408 143.832L152.756 144.436" stroke="#212529" stroke-linecap="round" stroke-linejoin="round"/>
<path d="M127.58 118.104L153.76 117.388" stroke="#212529" stroke-linecap="round" stroke-linejoin="round"/>
<path d="M128.344 119.844L157.316 119.052" stroke="#212529" stroke-linecap="round" stroke-linejoin="round"/>
<path d="M129.404 121.948L153.76 121.284" stroke="#212529" stroke-linecap="round" stroke-linejoin="round"/>
<path d="M130.54 124.052L157.608 123.312" stroke="#212529" stroke-linecap="round" stroke-linejoin="round"/>
<path d="M123.012 106.96L150.992 106.192" stroke="#212529" stroke-linecap="round" stroke-linejoin="round"/>
<path d="M124.008 108.544L153.76 107.728" stroke="#212529" stroke-linecap="round" stroke-linejoin="round"/>
<path d="M124.524 110.184L147.652 109.552" stroke="#212529" stroke-linecap="round" stroke-linejoin="round"/>
<path d="M120.028 96.6198L146.692 95.8918" stroke="#212529" stroke-linecap="round" stroke-linejoin="round"/>
<path d="M120.64 98.368L138.712 97.876" stroke="#212529" stroke-linecap="round" stroke-linejoin="round"/>
<path d="M119.596 94.8281L149.696 94.0081" stroke="#212529" stroke-linecap="round" stroke-linejoin="round"/>
<path d="M159.738 97.1249C160.461 95.5172 159.435 93.4887 157.447 92.5942C155.459 91.6997 153.26 92.2779 152.537 93.8856C151.814 95.4933 152.84 97.5218 154.828 98.4163C156.817 99.3108 159.015 98.7326 159.738 97.1249Z" fill="white" stroke="#212529" stroke-linecap="round" stroke-linejoin="round"/>
<path d="M153.76 94.3959L156.972 96.8399L160.872 88.8879" stroke="#F6F9FF" stroke-width="4" stroke-linecap="round" stroke-linejoin="round"/>
<path d="M163.582 107.81C164.306 106.202 163.28 104.174 161.291 103.279C159.303 102.385 157.105 102.963 156.382 104.571C155.658 106.179 156.684 108.207 158.673 109.102C160.661 109.996 162.859 109.418 163.582 107.81Z" fill="white" stroke="#212529" stroke-linecap="round" stroke-linejoin="round"/>
<path d="M168.572 119.2C167.852 120.8 165.652 121.384 163.664 120.492C161.676 119.6 160.652 117.568 161.372 115.964C162.092 114.36 164.292 113.776 166.28 114.672C168.268 115.568 169.296 117.6 168.572 119.2Z" fill="white" stroke="#212529" stroke-linecap="round" stroke-linejoin="round"/>
<path d="M162.604 115.992L165.816 118.436L169.712 110.484" stroke="#F6F9FF" stroke-width="4" stroke-linecap="round" stroke-linejoin="round"/>
<path d="M156.096 102.348L164.784 110.032" stroke="#212529" stroke-width="4" stroke-linecap="round" stroke-linejoin="round"/>
<path d="M158.036 111.052L161.892 101.252" stroke="#212529" stroke-width="4" stroke-linecap="round" stroke-linejoin="round"/>
<path d="M111.844 66.0999V146.568C111.844 146.944 111.787 147.317 111.676 147.676C111.441 148.423 110.974 149.076 110.342 149.539C109.71 150.003 108.947 150.252 108.164 150.252H68.4C67.9164 150.252 67.4375 150.157 66.9908 149.971C66.544 149.786 66.1382 149.515 65.7964 149.173C65.4546 148.831 65.1836 148.424 64.9989 147.977C64.8142 147.53 64.7194 147.052 64.72 146.568V66.0999C64.7221 65.1246 65.1105 64.1898 65.8002 63.5001C66.4898 62.8104 67.4246 62.422 68.4 62.4199H108.168C109.143 62.421 110.078 62.8092 110.768 63.4992C111.457 64.1892 111.844 65.1246 111.844 66.0999Z" fill="#212529"/>
<path opacity="0.1" d="M111.844 66.0999V146.568C111.844 146.944 111.787 147.317 111.676 147.676L65.468 63.8759C65.81 63.4231 66.2525 63.0558 66.7606 62.8032C67.2687 62.5505 67.8286 62.4193 68.396 62.4199H108.164C108.647 62.4199 109.126 62.5151 109.572 62.7C110.019 62.885 110.424 63.156 110.766 63.4978C111.108 63.8395 111.379 64.2452 111.564 64.6916C111.749 65.1381 111.844 65.6167 111.844 66.0999Z" fill="white"/>
<path d="M111.844 66.0999V146.568C111.844 146.944 111.787 147.317 111.676 147.676C111.441 148.423 110.974 149.076 110.342 149.539C109.71 150.003 108.947 150.252 108.164 150.252H68.4C67.9164 150.252 67.4375 150.157 66.9908 149.971C66.544 149.786 66.1382 149.515 65.7964 149.173C65.4546 148.831 65.1836 148.424 64.9989 147.977C64.8142 147.53 64.7194 147.052 64.72 146.568V66.0999C64.7221 65.1246 65.1105 64.1898 65.8002 63.5001C66.4898 62.8104 67.4246 62.422 68.4 62.4199H108.168C109.143 62.421 110.078 62.8092 110.768 63.4992C111.457 64.1892 111.844 65.1246 111.844 66.0999Z" stroke="#212529" stroke-miterlimit="10"/>
<path d="M109.396 70.6599H67.2439V140.448H109.396V70.6599Z" fill="white"/>
<path d="M70.2279 73.9038H69.2759V75.2038H70.2279V73.9038Z" fill="#212529"/>
<path d="M71.5279 73.0039H70.5759V75.2039H71.5279V73.0039Z" fill="#212529"/>
<path d="M72.9281 71.7959H71.9761V75.2039H72.9281V71.7959Z" fill="#212529"/>
<path d="M107.972 73.0039H104.196V75.0719H107.972V73.0039Z" stroke="#212529" stroke-width="0.821067" stroke-linecap="round" stroke-linejoin="round"/>
<path d="M107.14 73.0039H104.196V75.0719H107.14V73.0039Z" fill="#212529" stroke="#212529" stroke-width="0.725073" stroke-linecap="round" stroke-linejoin="round"/>
<path d="M108.496 73.584H107.964V74.496H108.496V73.584Z" fill="#212529" stroke="#212529" stroke-width="0.725073" stroke-linecap="round" stroke-linejoin="round"/>
<path opacity="0.1" d="M88.2799 147.672C89.4618 147.672 90.4199 146.714 90.4199 145.532C90.4199 144.35 89.4618 143.392 88.2799 143.392C87.098 143.392 86.1399 144.35 86.1399 145.532C86.1399 146.714 87.098 147.672 88.2799 147.672Z" fill="white"/>
<path d="M109.396 70.6599H67.2439V140.448H109.396V70.6599Z" stroke="#212529" stroke-miterlimit="10"/>
<path opacity="0.1" d="M75.7281 143.444H72.4561V146.716H75.7281V143.444Z" stroke="white" stroke-miterlimit="10"/>
<path d="M103.064 87.944C103.06 87.9189 103.048 87.8959 103.029 87.8791C103.01 87.8623 102.985 87.8527 102.96 87.852L100.86 87.688C100.589 86.997 100.241 86.3394 99.82 85.728L100.9 83.88C100.915 83.8605 100.923 83.8366 100.923 83.812C100.923 83.7874 100.915 83.7635 100.9 83.744L99.2 82.044C99.1808 82.0284 99.1568 82.0199 99.132 82.0199C99.1072 82.0199 99.0832 82.0284 99.064 82.044L97.2 83.124C96.125 82.4019 94.9134 81.9078 93.64 81.672L93.108 79.564C93.1025 79.5397 93.0887 79.518 93.069 79.5027C93.0493 79.4874 93.0249 79.4794 93 79.48H90.6C90.5752 79.4801 90.5512 79.4884 90.5317 79.5036C90.5121 79.5188 90.4982 79.54 90.492 79.564L89.956 81.684C89.2498 81.8241 88.5615 82.0428 87.904 82.336L86.244 80.9C86.2238 80.8848 86.1993 80.8765 86.174 80.8765C86.1487 80.8765 86.1241 80.8848 86.104 80.9L84.136 82.28C84.1159 82.2937 84.101 82.3138 84.0937 82.3371C84.0865 82.3603 84.0873 82.3853 84.096 82.408L84.896 84.468C84.3991 84.9866 83.9605 85.558 83.588 86.172L81.396 85.944C81.371 85.942 81.3459 85.9478 81.3244 85.9607C81.3029 85.9736 81.286 85.993 81.276 86.016L80.456 88.272C80.4474 88.2958 80.447 88.3217 80.455 88.3457C80.463 88.3696 80.4788 88.3902 80.5 88.404L82.316 89.636C82.2314 90.1463 82.1886 90.6627 82.188 91.18C82.188 91.372 82.188 91.58 82.212 91.792L80.3 92.864C80.278 92.8752 80.2608 92.8938 80.2513 92.9165C80.2417 92.9392 80.2406 92.9645 80.248 92.988L80.864 95.308C80.8688 95.3327 80.8824 95.3548 80.9022 95.3703C80.9221 95.3857 80.9469 95.3934 80.972 95.392L83.132 95.364C83.4469 96.0159 83.8318 96.6315 84.28 97.2L83.348 99.136C83.3363 99.1588 83.3332 99.185 83.339 99.2099C83.3449 99.2348 83.3594 99.2568 83.38 99.272L85.224 100.816C85.2432 100.832 85.2672 100.84 85.292 100.84C85.3167 100.84 85.3408 100.832 85.36 100.816L87.088 99.584C87.735 99.9502 88.4222 100.24 89.136 100.448L89.492 102.544C89.4977 102.568 89.5107 102.59 89.5293 102.607C89.548 102.623 89.5713 102.633 89.596 102.636L91.996 102.84C92.0153 102.836 92.0334 102.827 92.0487 102.815C92.064 102.802 92.0761 102.786 92.084 102.768L92.78 100.796C93.5281 100.724 94.2652 100.564 94.976 100.32L96.44 101.804C96.4568 101.821 96.4785 101.833 96.5022 101.837C96.5258 101.841 96.5502 101.838 96.572 101.828L98.652 100.628C98.6729 100.616 98.6893 100.597 98.6987 100.575C98.708 100.552 98.7099 100.528 98.704 100.504L98.152 98.504C98.7207 98.0108 99.2307 97.4538 99.672 96.844L101.728 97.22C101.752 97.2253 101.777 97.2218 101.798 97.21C101.819 97.1982 101.836 97.179 101.844 97.156L102.86 94.98C102.871 94.9574 102.874 94.9319 102.869 94.9074C102.864 94.8829 102.851 94.8606 102.832 94.844L101.232 93.524C101.413 92.795 101.507 92.0471 101.512 91.296L103.42 90.428C103.443 90.4185 103.462 90.4015 103.475 90.3797C103.487 90.358 103.492 90.3327 103.488 90.308L103.064 87.944ZM91.864 97.08C90.3284 97.04 88.8692 96.4019 87.7973 95.3017C86.7254 94.2014 86.1255 92.7261 86.1255 91.19C86.1255 89.6539 86.7254 88.1786 87.7973 87.0784C88.8692 85.9781 90.3284 85.34 91.864 85.3C93.4267 85.3 94.9253 85.9208 96.0303 87.0257C97.1352 88.1307 97.756 89.6294 97.756 91.192C97.756 92.7547 97.1352 94.2533 96.0303 95.3583C94.9253 96.4632 93.4267 97.084 91.864 97.084V97.08Z" fill="#F6F9FF" stroke="#212529" stroke-linecap="round" stroke-linejoin="round"/>
<path d="M90.1039 107.6C90.0999 107.573 90.0857 107.548 90.0641 107.531C90.0425 107.514 90.0153 107.506 89.9879 107.508L88.3039 107.612C88.0849 107.047 87.8003 106.51 87.4559 106.012L88.5199 104.676C88.5371 104.655 88.5465 104.629 88.5465 104.602C88.5465 104.575 88.5371 104.549 88.5199 104.528L86.7519 102.76C86.7311 102.743 86.7049 102.733 86.6779 102.733C86.6508 102.733 86.6247 102.743 86.6039 102.76L85.2559 103.832C84.3725 103.238 83.3777 102.83 82.3319 102.632L82.1239 100.896C82.1224 100.881 82.118 100.867 82.1109 100.854C82.1038 100.841 82.0941 100.83 82.0825 100.821C82.0709 100.812 82.0576 100.806 82.0434 100.802C82.0292 100.798 82.0144 100.798 81.9999 100.8H79.4999C79.4724 100.801 79.446 100.811 79.4255 100.829C79.405 100.848 79.3916 100.873 79.3879 100.9L79.1839 102.648C78.6115 102.758 78.0534 102.933 77.5199 103.168L76.3519 101.852C76.3318 101.833 76.3054 101.823 76.2779 101.823C76.2504 101.823 76.2239 101.833 76.2039 101.852L74.1519 103.288C74.1293 103.303 74.1132 103.327 74.1066 103.353C74.1 103.38 74.1032 103.408 74.1159 103.432L74.9599 104.984C74.554 105.403 74.1959 105.866 73.8919 106.364L72.1759 105.964C72.1494 105.957 72.1213 105.96 72.097 105.973C72.0727 105.985 72.0538 106.006 72.0439 106.032L71.1999 108.352C71.194 108.365 71.1908 108.379 71.1904 108.393C71.1901 108.407 71.1926 108.421 71.1978 108.434C71.2031 108.447 71.2109 108.459 71.2209 108.469C71.2309 108.479 71.2428 108.487 71.2559 108.492L72.8279 109.292C72.7625 109.71 72.729 110.133 72.7279 110.556C72.7279 110.704 72.7279 110.86 72.7279 111.044L71.0999 111.688C71.0738 111.697 71.0522 111.716 71.0396 111.74C71.0269 111.765 71.0242 111.793 71.0319 111.82L71.6799 114.22C71.6847 114.247 71.7001 114.271 71.7226 114.287C71.745 114.302 71.7728 114.309 71.7999 114.304L73.5119 114.048C73.7714 114.584 74.0894 115.09 74.4599 115.556L73.5079 116.988C73.4903 117.009 73.4807 117.036 73.4807 117.064C73.4807 117.092 73.4903 117.118 73.5079 117.14L75.4279 118.74C75.4486 118.755 75.4739 118.764 75.4999 118.764C75.5258 118.764 75.5511 118.755 75.5719 118.74L76.8079 117.568C77.3329 117.864 77.8898 118.1 78.4679 118.272L78.5159 119.96C78.5158 119.987 78.5262 120.013 78.5449 120.032C78.5635 120.051 78.589 120.063 78.6159 120.064L81.1039 120.272C81.1315 120.272 81.1583 120.263 81.1796 120.245C81.2008 120.228 81.2151 120.203 81.2199 120.176L81.5559 118.536C82.1626 118.471 82.7599 118.337 83.3359 118.136L84.3319 119.472C84.3479 119.494 84.3717 119.509 84.3984 119.514C84.4251 119.519 84.4527 119.514 84.4759 119.5L86.6399 118.252C86.6635 118.238 86.6811 118.216 86.6893 118.19C86.6974 118.165 86.6955 118.136 86.6839 118.112L86.0239 116.588C86.4857 116.187 86.9004 115.735 87.2599 115.24L88.8319 115.764C88.8579 115.772 88.8862 115.771 88.9113 115.76C88.9363 115.749 88.9564 115.729 88.9679 115.704L90.0279 113.448C90.0386 113.423 90.0401 113.395 90.032 113.37C90.0239 113.344 90.0068 113.322 89.9839 113.308L88.5679 112.436C88.7128 111.844 88.7907 111.237 88.7999 110.628L90.3999 110.148C90.4255 110.14 90.4475 110.123 90.4621 110.1C90.4767 110.078 90.483 110.051 90.4799 110.024L90.1039 107.6ZM85.6719 110.552C85.6679 111.517 85.3781 112.458 84.8392 113.258C84.3002 114.058 83.5362 114.681 82.6437 115.047C81.7512 115.413 80.7702 115.506 79.8247 115.315C78.8792 115.124 78.0115 114.657 77.3313 113.973C76.6512 113.289 76.189 112.418 76.0032 111.472C75.8175 110.525 75.9164 109.545 76.2876 108.654C76.6587 107.764 77.2855 107.003 78.0886 106.469C78.8917 105.935 79.8352 105.65 80.7999 105.652C82.0931 105.653 83.3331 106.167 84.248 107.081C85.1628 107.995 85.6777 109.235 85.6799 110.528L85.6719 110.552Z" fill="#F6F9FF" stroke="#212529" stroke-linecap="round" stroke-linejoin="round"/>
<path d="M95.1119 125.432H80.9799C78.5608 125.432 76.5999 127.393 76.5999 129.812V130.04C76.5999 132.459 78.5608 134.42 80.9799 134.42H95.1119C97.5309 134.42 99.4919 132.459 99.4919 130.04V129.812C99.4919 127.393 97.5309 125.432 95.1119 125.432Z" fill="#F6F9FF" stroke="#212529" stroke-linecap="round" stroke-linejoin="round"/>
<path d="M80.6279 129.7C80.6492 129.393 80.7585 129.099 80.9427 128.853C81.1269 128.606 81.3781 128.418 81.6664 128.311C81.9546 128.204 82.2677 128.182 82.568 128.248C82.8684 128.314 83.1433 128.465 83.3599 128.684L83.0079 129.012C82.9068 128.901 82.783 128.813 82.645 128.755C82.5069 128.696 82.3579 128.668 82.2079 128.672C82.0673 128.663 81.9263 128.683 81.7937 128.731C81.6611 128.779 81.5398 128.853 81.437 128.95C81.3343 129.046 81.2525 129.163 81.1965 129.292C81.1406 129.421 81.1117 129.561 81.1117 129.702C81.1117 129.843 81.1406 129.982 81.1965 130.112C81.2525 130.241 81.3343 130.357 81.437 130.454C81.5398 130.55 81.6611 130.625 81.7937 130.673C81.9263 130.72 82.0673 130.741 82.2079 130.732C82.3587 130.736 82.5085 130.707 82.6468 130.647C82.7851 130.587 82.9084 130.497 83.0079 130.384L83.3599 130.72C83.1431 130.938 82.8678 131.09 82.5671 131.156C82.2664 131.221 81.9531 131.199 81.6647 131.092C81.3763 130.984 81.1251 130.795 80.9412 130.549C80.7573 130.302 80.6485 130.007 80.6279 129.7Z" fill="#212529"/>
<path d="M86.488 128.236V131.168H85.944V129.912H84.428V131.168H83.884V128.236H84.428V129.436H85.944V128.236H86.488Z" fill="#212529"/>
<path d="M89.476 130.712V131.168H87.28V128.236H89.42V128.692H87.82V129.452H89.236V129.9H87.82V130.7L89.476 130.712Z" fill="#212529"/>
<path d="M89.864 129.7C89.8853 129.393 89.9946 129.099 90.1788 128.853C90.3629 128.606 90.6142 128.418 90.9025 128.311C91.1907 128.204 91.5038 128.182 91.8041 128.248C92.1045 128.314 92.3794 128.465 92.596 128.684L92.244 129.012C92.1434 128.9 92.0197 128.812 91.8816 128.753C91.7434 128.695 91.5941 128.667 91.444 128.672C91.3034 128.663 91.1624 128.683 91.0298 128.731C90.8972 128.779 90.7758 128.853 90.6731 128.95C90.5704 129.046 90.4886 129.163 90.4326 129.292C90.3767 129.421 90.3478 129.561 90.3478 129.702C90.3478 129.843 90.3767 129.982 90.4326 130.112C90.4886 130.241 90.5704 130.357 90.6731 130.454C90.7758 130.55 90.8972 130.625 91.0298 130.673C91.1624 130.72 91.3034 130.741 91.444 130.732C91.5949 130.737 91.745 130.709 91.8834 130.648C92.0219 130.588 92.1451 130.498 92.244 130.384L92.596 130.72C92.3792 130.938 92.1039 131.09 91.8032 131.156C91.5025 131.221 91.1892 131.199 90.9008 131.092C90.6124 130.984 90.3612 130.795 90.1773 130.549C89.9934 130.302 89.8846 130.007 89.864 129.7Z" fill="#212529"/>
<path d="M94.1319 129.94L93.6639 130.4V131.152H93.1199V128.22H93.6639V129.724L95.1159 128.22H95.7279L94.4959 129.528L95.7999 131.152H95.1639L94.1319 129.94Z" fill="#212529"/>
<path opacity="0.1" d="M101.66 146.936V143.664L104.932 145.3L101.66 146.936Z" stroke="white" stroke-miterlimit="10"/>
</svg>
